REM DIRINDEX 1\2\4,1\2\5,1\3\6,1\3\7,1\3\8
REM DIRNAME cjc092,folder01,folder02,folder03,folder04,folder05,folder06,folder07
TITLE ""
FILE "LEVEL5-011-midashigo.mp3" MP3
  TRACK 01 AUDIO
    TITLE "0:"
    INDEX 01 00:00:00
  TRACK 02 AUDIO
    TITLE "6:cjc092_3787"
    INDEX 01 00:00:05
  TRACK 03 AUDIO
    TITLE "0:"
    INDEX 01 00:04:54
  TRACK 04 AUDIO
    TITLE "7:cjc092_3788"
    INDEX 01 00:05:28
  TRACK 05 AUDIO
    TITLE "8:cjc092_3789"
    INDEX 01 00:06:51
  TRACK 06 AUDIO
    TITLE "0:"
    INDEX 01 00:10:00
  TRACK 07 AUDIO
    TITLE "7:cjc092_3790"
    INDEX 01 00:10:33
  TRACK 08 AUDIO
    TITLE "8:cjc092_3791"
    INDEX 01 00:11:52
  TRACK 09 AUDIO
    TITLE "0:"
    INDEX 01 00:13:28
  TRACK 10 AUDIO
    TITLE "7:cjc092_3792"
    INDEX 01 00:13:67
  TRACK 11 AUDIO
    TITLE "8:cjc092_3793"
    INDEX 01 00:15:13
  TRACK 12 AUDIO
    TITLE "0:"
    INDEX 01 00:18:39
  TRACK 13 AUDIO
    TITLE "7:cjc092_3794"
    INDEX 01 00:18:66
  TRACK 14 AUDIO
    TITLE "8:cjc092_3795"
    INDEX 01 00:20:22
  TRACK 15 AUDIO
    TITLE "0:"
    INDEX 01 00:22:58
  TRACK 16 AUDIO
    TITLE "7:cjc092_3796"
    INDEX 01 00:23:18
  TRACK 17 AUDIO
    TITLE "8:cjc092_3797"
    INDEX 01 00:24:39
  TRACK 18 AUDIO
    TITLE "0:"
    INDEX 01 00:26:22
  TRACK 19 AUDIO
    TITLE "7:cjc092_3798"
    INDEX 01 00:26:56
  TRACK 20 AUDIO
    TITLE "8:cjc092_3799"
    INDEX 01 00:28:15
  TRACK 21 AUDIO
    TITLE "0:"
    INDEX 01 00:30:52
  TRACK 22 AUDIO
    TITLE "7:cjc092_3800"
    INDEX 01 00:31:14
  TRACK 23 AUDIO
    TITLE "8:cjc092_3801"
    INDEX 01 00:32:43
  TRACK 24 AUDIO
    TITLE "0:"
    INDEX 01 00:36:25
  TRACK 25 AUDIO
    TITLE "7:cjc092_3802"
    INDEX 01 00:36:52
  TRACK 26 AUDIO
    TITLE "8:cjc092_3803"
    INDEX 01 00:37:63
  TRACK 27 AUDIO
    TITLE "0:"
    INDEX 01 00:41:59
  TRACK 28 AUDIO
    TITLE "7:cjc092_3804"
    INDEX 01 00:42:19
  TRACK 29 AUDIO
    TITLE "8:cjc092_3805"
    INDEX 01 00:43:39
  TRACK 30 AUDIO
    TITLE "0:"
    INDEX 01 00:46:07
  TRACK 31 AUDIO
    TITLE "7:cjc092_3806"
    INDEX 01 00:46:41
  TRACK 32 AUDIO
    TITLE "8:cjc092_3807"
    INDEX 01 00:47:74
  TRACK 33 AUDIO
    TITLE "0:"
    INDEX 01 00:49:29
  TRACK 34 AUDIO
    TITLE "7:cjc092_3808"
    INDEX 01 00:49:65
  TRACK 35 AUDIO
    TITLE "8:cjc092_3809"
    INDEX 01 00:51:26
  TRACK 36 AUDIO
    TITLE "0:"
    INDEX 01 00:53:57
  TRACK 37 AUDIO
    TITLE "7:cjc092_3810"
    INDEX 01 00:54:13
  TRACK 38 AUDIO
    TITLE "8:cjc092_3811"
    INDEX 01 00:55:24
  TRACK 39 AUDIO
    TITLE "0:"
    INDEX 01 00:58:24
  TRACK 40 AUDIO
    TITLE "7:cjc092_3812"
    INDEX 01 00:58:60
  TRACK 41 AUDIO
    TITLE "8:cjc092_3813"
    INDEX 01 00:59:73
  TRACK 42 AUDIO
    TITLE "0:"
    INDEX 01 01:02:16
  TRACK 43 AUDIO
    TITLE "7:cjc092_3814"
    INDEX 01 01:02:50
  TRACK 44 AUDIO
    TITLE "8:cjc092_3815"
    INDEX 01 01:04:11
  TRACK 45 AUDIO
    TITLE "0:"
    INDEX 01 01:06:22
  TRACK 46 AUDIO
    TITLE "7:cjc092_3816"
    INDEX 01 01:06:57
  TRACK 47 AUDIO
    TITLE "8:cjc092_3817"
    INDEX 01 01:08:15
  TRACK 48 AUDIO
    TITLE "0:"
    INDEX 01 01:10:00
  TRACK 49 AUDIO
    TITLE "7:cjc092_3818"
    INDEX 01 01:10:33
  TRACK 50 AUDIO
    TITLE "8:cjc092_3819"
    INDEX 01 01:12:03
  TRACK 51 AUDIO
    TITLE "0:"
    INDEX 01 01:15:27
  TRACK 52 AUDIO
    TITLE "7:cjc092_3820"
    INDEX 01 01:15:58
  TRACK 53 AUDIO
    TITLE "8:cjc092_3821"
    INDEX 01 01:17:28
  TRACK 54 AUDIO
    TITLE "0:"
    INDEX 01 01:19:21
  TRACK 55 AUDIO
    TITLE "7:cjc092_3822"
    INDEX 01 01:19:52
  TRACK 56 AUDIO
    TITLE "8:cjc092_3823"
    INDEX 01 01:20:69
  TRACK 57 AUDIO
    TITLE "0:"
    INDEX 01 01:22:15
  TRACK 58 AUDIO
    TITLE "7:cjc092_3824"
    INDEX 01 01:22:48
  TRACK 59 AUDIO
    TITLE "8:cjc092_3825"
    INDEX 01 01:23:69
  TRACK 60 AUDIO
    TITLE "0:"
    INDEX 01 01:26:34
